<svg width="1024" height="1024" viewBox="0 0 1024 1024" xmlns="http://www.w3.org/2000/svg">
  <defs>
    <linearGradient id="bg" x1="50%" y1="0%" x2="50%" y2="100%">
      <stop offset="0%" stop-color="#22C55E"/>
      <stop offset="100%" stop-color="#16A34A"/>
    </linearGradient>
    <filter id="shadow">
      <feGaussianBlur in="SourceAlpha" stdDeviation="10.5"/>
      <feOffset dy="4" result="offsetblur"/>
      <feComponentTransfer>
        <feFuncA type="linear" slope="0.44"/>
      </feComponentTransfer>
      <feMerge>
        <feMergeNode/>
        <feMergeNode in="SourceGraphic"/>
      </feMerge>
    </filter>
  </defs>
  
  <!-- Background rounded square -->
  <path d="M665 0H355c-103 0-154 0-209 17-61 22-108 69-130 130C0 202 0 253 0 355v310c0 103 0 154 17 209 22 61 69 108 130 130 55 17 106 17 209 17h310c103 0 154 0 209-17 61-22 108-69 130-130 17-55 17-106 17-209V355c0-103 0-154-17-209-22-61-69-108-130-130C819 0 768 0 665 0Z" fill="url(#bg)"/>
  
  <!-- Code brackets with shadow -->
  <g filter="url(#shadow)" fill="#ECF8F0">
    <!-- Left bracket < -->
    <path d="M305 307c18-15 45-13 60 5s13 45-5 60L206 501l129 154c15 18 13 45-5 60s-45 13-60-5L114 523c-15-18-13-45 5-60l186-156Z"/>
    
    <!-- Middle slash / -->
    <path d="M535 222c5-23 28-37 51-32s37 28 32 51L479 834c-5 23-28 37-51 32s-37-28-32-51l139-593Z"/>
    
    <!-- Right bracket > -->
    <path d="M701 342c18-15 45-13 60 5l156 186c15 18 13 45-5 60L725 750c-18 15-45 13-60-5s-13-45 5-60l154-129-129-154c-15-18-13-45 5-60Z"/>
  </g>
</svg>